Coordinates
version=1
nRows=38
nColumns=12
inDegrees=yes

Units are S.I. units (second, meters, Newtons, ...)
Angles are in degrees

endheader
time	SC_y	SC_z	SC_x	AC_y	AC_z	AC_x	GH_y	GH_z	GH_yy	EL_x	PS_y
       0.0              -48.57          34.53           29.7          68.51         -15.49         -9.637          67.99          46.35         -13.46          65.61          125.5
 0.0007647              -48.57          34.53          29.71           68.5         -15.49         -9.636          67.99          46.36         -13.47          65.61          125.5
  0.001529              -48.57          34.53          29.71           68.5         -15.49         -9.634           68.0          46.36         -13.49          65.62          125.5
  0.002294              -48.56          34.53          29.71          68.49         -15.48         -9.633           68.0          46.37          -13.5          65.63          125.5
  0.003059              -48.56          34.53          29.72          68.49         -15.48         -9.631          68.01          46.38         -13.51          65.63          125.4
  0.003823              -48.56          34.52          29.72          68.48         -15.48          -9.63          68.01          46.38         -13.53          65.64          125.4
  0.004588              -48.55          34.52          29.73          68.47         -15.48         -9.628          68.02          46.39         -13.54          65.65          125.4
  0.005353              -48.55          34.52          29.73          68.47         -15.48         -9.627          68.02           46.4         -13.56          65.65          125.4
  0.006117              -48.54          34.52          29.74          68.46         -15.48         -9.625          68.03          46.41         -13.58          65.66          125.4
  0.006882              -48.54          34.52          29.74          68.45         -15.48         -9.623          68.03          46.42          -13.6          65.67          125.4
  0.007647              -48.53          34.51          29.75          68.44         -15.48          -9.62          68.04          46.43         -13.62          65.68          125.4
  0.008412              -48.52          34.51          29.76          68.43         -15.47         -9.618          68.05          46.44         -13.64          65.69          125.4
  0.009176              -48.52          34.51          29.76          68.42         -15.47         -9.616          68.05          46.45         -13.67           65.7          125.4
  0.009941              -48.51           34.5          29.77          68.41         -15.47         -9.613          68.06          46.46         -13.69          65.72          125.4
   0.01071               -48.5           34.5          29.78           68.4         -15.47          -9.61          68.07          46.48         -13.72          65.73          125.4
   0.01147              -48.49           34.5          29.79          68.39         -15.47         -9.607          68.08          46.49         -13.75          65.74          125.3
   0.01223              -48.48          34.49           29.8          68.37         -15.46         -9.603          68.09          46.51         -13.78          65.76          125.3
     0.013              -48.47          34.49          29.81          68.36         -15.46         -9.599           68.1          46.52         -13.82          65.78          125.3
   0.01376              -48.46          34.48          29.82          68.34         -15.46         -9.595          68.11          46.54         -13.86          65.79          125.3
   0.01453              -48.45          34.48          29.83          68.32         -15.45         -9.591          68.13          46.56          -13.9          65.81          125.3
   0.01529              -48.43          34.47          29.85           68.3         -15.45         -9.586          68.14          46.59         -13.95          65.84          125.3
   0.01606              -48.42          34.47          29.86          68.28         -15.45          -9.58          68.16          46.61          -14.0          65.86          125.2
   0.01682               -48.4          34.46          29.88          68.26         -15.44         -9.574          68.17          46.64         -14.06          65.89          125.2
   0.01759              -48.38          34.45           29.9          68.23         -15.44         -9.568          68.19          46.67         -14.13          65.92          125.2
   0.01835              -48.36          34.44          29.92           68.2         -15.43          -9.56          68.21           46.7          -14.2          65.95          125.2
   0.01912              -48.34          34.44          29.94          68.17         -15.43         -9.552          68.24          46.74         -14.28          65.99          125.1
   0.01988              -48.31          34.42          29.97          68.13         -15.42         -9.542          68.27          46.79         -14.37          66.03          125.1
   0.02065              -48.28          34.41           30.0          68.09         -15.41         -9.532           68.3          46.83         -14.47          66.08          125.0
   0.02141              -48.25           34.4          30.03          68.04          -15.4          -9.52          68.33          46.89         -14.58          66.13          125.0
   0.02218              -48.21          34.38          30.07          67.99         -15.39         -9.507          68.37          46.95         -14.71          66.19          124.9
   0.02294              -48.17          34.37          30.11          67.93         -15.38         -9.491          68.41          47.02         -14.86          66.26          124.9
   0.02371              -48.12          34.35          30.16          67.86         -15.37         -9.474          68.47           47.1         -15.03          66.34          124.8
   0.02447              -48.07          34.32          30.22          67.78         -15.35         -9.453          68.53           47.2         -15.22          66.43          124.7
   0.02523               -48.0           34.3          30.29          67.68         -15.34          -9.43          68.59          47.31         -15.45          66.53          124.6
     0.026              -47.92          34.27          30.37          67.57         -15.32         -9.402          68.67          47.43         -15.71          66.66          124.5
   0.02676              -47.83          34.23          30.46          67.44         -15.29          -9.37          68.77          47.58         -16.02           66.8          124.4
   0.02753              -47.73          34.18          30.57          67.29         -15.26         -9.331          68.88          47.76         -16.39          66.98          124.2
   0.02829               -47.6          34.13           30.7           67.1         -15.23         -9.284          69.02          47.98         -16.84          67.18          124.0
